<?xml version="1.0" encoding="UTF-8"?>
<svg id="_图层_1" data-name="图层 1" xmlns="http://www.w3.org/2000/svg" viewBox="0 0 430.52 177.93">
  <defs>
    <style>
      .cls-1, .cls-2, .cls-3 {
        stroke: #231815;
        stroke-miterlimit: 10;
      }

      .cls-1, .cls-2, .cls-4 {
        fill: none;
      }

      .cls-2 {
        stroke-dasharray: 0 0 10.76 10.76;
      }

      .cls-5, .cls-3 {
        fill: #231815;
      }

      .cls-5, .cls-6, .cls-4, .cls-7, .cls-8, .cls-9, .cls-10, .cls-11, .cls-12 {
        stroke-width: 0px;
      }

      .cls-3 {
        stroke-width: .25px;
      }

      .cls-6 {
        fill: #c9bc9c;
      }

      .cls-7 {
        fill: #c9a063;
      }

      .cls-8 {
        fill: #2ea7e0;
        opacity: .76;
      }

      .cls-9 {
        fill: #f3c6dc;
      }

      .cls-10 {
        fill: #dcdddd;
      }

      .cls-11 {
        fill: #e83828;
      }

      .cls-12 {
        fill: #def0f5;
      }
    </style>
  </defs>
  <rect class="cls-9" x="105.2" width="146.78" height="25.97"/>
  <rect class="cls-8" y="133.8" width="430.52" height="44.13"/>
  <rect class="cls-4" width="430.52" height="177.93"/>
  <path class="cls-7" d="m430.52,133.8H0v-25.82l27.23-13.15,5.63-3.29,1.41-2.58,2.82-4.93,1.41-5.16,1.88-5.16,3.29-3.76,2.35-4.23,4.23-3.76,5.63-2.82,4.23-4.23,13.15-6.57,5.16-6.1,2.35-2.35,3.29,2.35,7.04,1.41,6.57,3.29,5.16,6.1,2.82,7.04,4.23,2.82,3.76,5.16,5.16,6.1,6.57,7.98,4.69,4.69s4.69,3.76,7.04,4.69,6.57,2.82,8.92,4.23,8.45,2.82,8.45,2.82l4.23,1.88s2.35,1.41,6.1,1.88,6.57,1.41,7.98,1.88,11.74,2.35,11.74,2.35c0,0,3.76.47,5.63.94s2.35,0,6.1.94,1.88.47,7.04.94.47,0,5.16.47,7.98,1.41,7.98,1.41h2.35l5.63.94s2.35-.47,3.76-.47,5.63-1.88,7.51-1.88h7.98s-.47,2.35,1.41,2.82,3.29-.47,5.16.47,6.1,1.41,6.1,1.41l3.76,1.88,7.98,1.41s4.23,1.88,5.63,2.35,3.76,1.88,9.39,2.35,9.86.47,16.9.94,16.43.47,21.13.94,16.43.47,17.84,0,13.62-.47,15.49-.47,16.9,4.69,16.9,4.69l15.49,1.88,13.15-1.41,8.92-2.82,7.98,1.88,6.57,1.41,5.16-2.35,1.88-5.63v12.21Z"/>
  <path class="cls-12" d="m80.74,39.97l-3.35,2.9v.63c0,1.73-4.44,3.15-5.81,3.96l-8.76,7.42v.76l.51.31-1.05,1.05,2.54-.86.44.86.88.31,1.38.62h.88l3.11-2.84-.63,1.17-.33,1.67.96,1.79,1.69-1.42,2.76-2.41-.17,2.9,1.05-.74.66-1.36.72,2.66,1.71,2.47,1.49-2.96,2.92-6.18,3.2-2.14,1.99,1.42,2.76.06s1.32,1.79,1.32,2.16,3.2.68,3.2.68l2.32,2.04,3.31,1.24.33,1.91,1.66.86.77-1.98-3.97-7.23-2.26-2.41s-1.27.25-1.43-.12c-.17-.37-1.54-2.41-1.54-2.41l-.86-1.22-2.35-1.31-6.11-1.67-2.93-.37-2.99-2.22Z"/>
  <path class="cls-10" d="m71.32,60.74l-2.02,1.31-1.16.76s-1.58,1.06-1.58,1.36-.25.91-.5,1.21-1.08.91-1.25,1.21-.83,1.21-1,1.51-.75,1.36-.75,1.59-.42,1.14-.5,1.44-.25,1.21-.42,1.59-.67.68-.83,1.14.17.38-.33,1.06-.75.45-.67,1.06-.11.91-.02,1.36-.32,1.21-.48,2.27-.33,2.12-.42,2.35.17.91,0,1.14-.02,1.74-.02,1.74h-1.31l-2.16.53s-1.66.15-2,.3-1.5.3-2.08.61-3.08,1.74-3.08,1.74l-.42.61-.83,2.04s-.67.98-.83,1.51-1,1.51-1,1.89v1.06l2-1.14s.83-1.36,1.08-1.51,1-1.14,1.75-.98,1.08.15,2.41.15,1.58,0,2.33-.53,1.16-1.74,1.16-1.74c0,0,1-1.51,1.58-1.67s2.25-.76,2.25-.76l.42-1.36.33-2.42s0-2.2.25-2.42,1.41-1.89,1.41-1.89c0,0,.75-1.21,1.16-1.51s.91-.91.91-.91v-1.59l.83-.83-.08,3.93s-.42.77-.5,1-.5,1.21-.5,1.21l-1.16,1.06.17,1.06.33,2.5,1.08-.53,1.33-1.74,1.08-1.82s2-3.71,2.25-3.79,1.66-2.73,2.16-3.26.58-2.04,1.25-3.56.67-2.73.83-3.48-1-3.71-1-3.71l-1.47-2.14Z"/>
  <path class="cls-6" d="m84.92,53.47l-1.06,1.06s-.3.61-.35.91-.25,1.01-.38,1.42-.68.71-.83.96-.76.66-.56.76.3.71.3.71l-.76.61s-.25.68-.25.84.15.57,0,.83-.51.76-.61,1.01-.35.86-.35.86h-.46s-.66,1.42-.71,1.62-.46.3-.61.96-.81.96-.61,1.67.3.81,0,1.62-.76,1.31-.91,1.57-.25.76-.25.76v1.47c0,.25-.2.4-.2,1.26s-.35,1.52.2,2.53.66,1.11.71,1.47.3,1.42.25,1.87-.3.15-.05,1.06.4,1.72.66,2.38.3.96.35,1.26-.15.2.25.76,1.11.25,1.11.25c0,0,.55-.3.75-.35s1.07-.15,1.07-.15l.25-1.11.1-2.48s-.51-.76-.51-.91.3-.71-.1-1.06-.86-.91-1.11-1.21-.76-.56-.81-1.01-.1-1.31-.05-1.67.15-1.21.15-1.21c0,0-.15-2.83-.15-2.98s-.05-.25.2-1.26-.35-.76.25-1.37,1.11-1.42,1.42-1.62-.4-.3.3-.2,1.06,1.62,1.06,1.62l.91,2.22.56-1.43-.15-1.61.35-.61s.46.3.61.61.66,2.02.66,2.28.35,1.87.35,1.87c0,0,1.37,1.21,1.52,1.52s1.21,1.01,1.62,1.57,1.42,2.33,1.42,2.98-.66,2.33-.3,2.58,1.87.91,2.48,1.26,2.43.66,2.68,1.47.4,2.65.51,3.2,1.01,1.25,1.47,1.81.76,1.47,1.21,1.97.66.71.81.91.86.86,1.37,1.47,1.16,1.47,1.42,1.82.81,1.01,1.47,1.52,1.01.61,1.62.91,1.97.86,1.97.86l1.67,1.52h1.21l-2.33-3.84-4.4-6.02s.71-2.17.91-2.38-2.22-2.68-2.38-2.83-1.37-.91-1.92-1.26-1.72-.86-1.42-1.57-2.88-.76-2.68-1.42-4.09-1.38-.17-3.77c1.5-.91-1.35.13-1.45-1.24s1.16-.96.96-1.37-1.83-.61-2.05-1.87-.37-2.78-.37-2.78c0,0,.2,0-.61-.51s-2.17-1.31-2.17-1.31c0,0-.61-1.87-.61-2.38s.25-.86-.3-2.07-.86-1.45-1.06-2.29-.25-1.15-.35-1.85.46-1.52-.1-2.12-.76-.61-1.06-1.01-.3-.46-.51-.76-.61-.66-.61-.86-.2-.46-.2-.46l-.25-.2Z"/>
  <path class="cls-6" d="m84.92,53.47l2.63-1.82,1.77,1.52,1.62.86,1.11,1.11,1.37.4.56,1.16s.76.96,1.01,1.21.66.81.91,1.11,1.01,1.23,1.16,1.7,1.06,1.53,1.57,1.84.71.2,1.21.56,1.37,1.06,1.62,1.72.35,1.21.71,1.67.51.66,1.01,1.52.96,1.52,1.62,2.12.71.91,1.62,1.42,1.47.66,2.33,1.01,1.01.51,1.72.86.96.2,1.21.81.2.61.4,1.16,1.21,1.82,1.21,1.82l2.02,3.08-2.53-.25s-.35-1.16-.86-1.72-1.21-1.01-1.62-1.42-2.17-.86-2.48-1.57-1.16-.81-1.52-1.92-3.08-1.82-3.08-1.82l-2.28-3.39s-.1-.35-.46-1.21-.51-1.62-1.11-1.92-2.07-.66-2.33-1.31-.51-2.02-.71-2.53-.35-.76-.81-1.16-3.89-3.44-3.89-3.59-.25-1.01-.35-1.16-.91-.61-1.31-.76-1.52-.86-1.52-.86l-1.37-.86-2.17.61Z"/>
  <path class="cls-12" d="m85.18,53.67l1.52,1.67,1.01.76.61,1.26v2.12s-.2.35,0,.66.46,1.06.61,1.37.35.86.56,1.06.71,1.11.71,1.11v1.01l-.4-4.8s-.35-.51.2-.71.96-.3,1.31-.35.61-1.16.4-1.37-1.06-1.01-1.06-1.16-.51-1.11-.51-1.11l-1.37-.66-1.26-1.06-2.33.2Z"/>
  <g>
    <line class="cls-1" x1="0" y1="39.91" x2="5.5" y2="39.91"/>
    <line class="cls-2" x1="16.26" y1="39.91" x2="419.64" y2="39.91"/>
    <line class="cls-1" x1="425.02" y1="39.91" x2="430.52" y2="39.91"/>
  </g>
  <polygon class="cls-11" points="350.49 116.09 332.88 133.81 315.27 116.09 326.41 116.09 326.41 39.97 339.35 39.97 339.35 116.09 350.49 116.09"/>
  <g>
    <path class="cls-3" d="m349.26,83.96c-.13.37-.23.74-.37,1.31h-4.21v-.19c.66-.66,1.33-1.33,1.91-2.01.62-.72,1.61-1.66,1.61-2.85,0-1.09-.56-1.67-1.51-1.67s-1.4.72-1.67,1.12l-.18-.14.65-.9c.32-.34.86-.64,1.5-.64.95,0,1.86.67,1.86,1.83,0,1.06-.56,1.81-1.52,2.84l-1.86,2.03h2.47c.6,0,.78-.06,1.09-.79l.24.07Z"/>
    <path class="cls-3" d="m351.32,78.11h3.13l.06.06-.24.53h-2.66l-.35,2.25c.56-.19,1.02-.38,1.36-.38,1.46,0,2.16,1.09,2.15,2.05,0,1.75-1.82,2.78-3.01,2.77-.67,0-1.27-.32-1.27-.62,0-.19.26-.44.42-.44.04,0,.08.01.12.04.22.23.6.53,1.33.53,1.55,0,1.76-1.37,1.76-1.82,0-1.19-.58-1.94-1.98-1.94-.66,0-1.07.13-1.24.19l.42-3.2Z"/>
    <path class="cls-3" d="m358.57,81.85h2.67v-2.66h.56v2.66h2.66v.48h-2.66v2.94h-.56v-2.94h-2.67v-.48Z"/>
    <path class="cls-3" d="m369.09,78.11h3.13l.06.06-.24.53h-2.66l-.35,2.25c.56-.19,1.02-.38,1.36-.38,1.46,0,2.16,1.09,2.15,2.05,0,1.75-1.82,2.78-3.01,2.77-.67,0-1.27-.32-1.27-.62,0-.19.26-.44.42-.44.04,0,.08.01.12.04.22.23.6.53,1.33.53,1.55,0,1.76-1.37,1.76-1.82,0-1.19-.58-1.94-1.98-1.94-.66,0-1.07.13-1.24.19l.42-3.2Z"/>
    <path class="cls-3" d="m376.34,80.73h5.89v.47h-5.89v-.47Zm0,2.27h5.89v.48h-5.89v-.48Z"/>
    <path class="cls-3" d="m386.68,78.58c.35-.36.9-.6,1.42-.6,1.01,0,1.64.65,1.64,1.44,0,.54-.44.9-1.21,1.3v.02c1.07.18,1.67.97,1.68,1.83,0,1.94-2.18,2.83-3.03,2.83-.71-.01-1.22-.43-1.22-.67,0-.13.26-.4.4-.4.06,0,.13.02.2.07.28.26.59.46,1.28.46.85,0,1.7-.58,1.7-1.86,0-1.64-1.32-1.76-1.67-1.76-.4,0-.73.13-.88.19l-.08-.19c1.26-.42,2.16-.9,2.16-1.7,0-.66-.46-1.06-1.15-1.06-.82,0-1.27.58-1.49.97l-.19-.12.44-.76Z"/>
    <path class="cls-3" d="m395.99,81.68c0,1.68-.63,3.72-2.27,3.72s-2.31-2.04-2.31-3.72.66-3.71,2.31-3.71,2.27,2.11,2.27,3.71Zm-2.27-3.43c-1.28,0-1.62,1.77-1.62,3.44s.34,3.44,1.63,3.44,1.58-1.81,1.58-3.44-.35-3.44-1.58-3.44h-.01Z"/>
    <path class="cls-3" d="m399.32,85.1c.77-.06.89-.22.89-.91v-2.49c0-.77-.08-.83-.77-.95v-.16c.5-.11.89-.24,1.34-.48v4.08c0,.7.12.85.9.91v.17h-2.36v-.17Zm1.64-7.12c0,.25-.2.48-.46.48s-.46-.23-.46-.48c0-.29.22-.5.46-.5.28,0,.46.25.46.5Z"/>
    <path class="cls-3" d="m402.21,85.1c.7-.05.89-.23.89-.95v-2.41c0-.8-.08-.85-.76-.98v-.16c.48-.12.96-.23,1.33-.5v1c.24-.14.54-.36.91-.61.34-.2.64-.34.97-.34,1,0,1.56.61,1.56,1.56v2.39c0,.84.11.96.78,1.01v.17h-2.31v-.17c.82-.05.96-.22.96-1.01v-1.97c0-.68-.19-1.45-1.3-1.45-.59,0-1.2.36-1.57.73v2.7c0,.77.12.95.95,1v.17h-2.41v-.17Z"/>
    <path class="cls-3" d="m410.42,81.12h5.06v-1.99c0-.94-.1-1.12-1.13-1.2v-.17h2.9v.17c-1.06.08-1.15.26-1.15,1.2v4.77c0,.95.1,1.13,1.12,1.2v.17h-2.96v-.17c1.13-.07,1.22-.25,1.22-1.2v-2.41h-5.06v2.41c0,.95.11,1.13,1.16,1.2v.17h-2.89v-.17c1.01-.07,1.1-.25,1.1-1.2v-4.77c0-.94-.1-1.12-1.15-1.2v-.17h2.88v.17c-1,.08-1.1.26-1.1,1.2v1.99Z"/>
    <path class="cls-3" d="m421.76,80.83c.24.25.41.66.41,1.02,0,1.26-1.13,1.86-1.98,1.86-.12,0-.25-.01-.43-.04-.3.11-.7.36-.7.61,0,.23.28.44.74.44.5,0,.97-.05,1.43-.05.83,0,1.68.24,1.68,1.34s-1.31,2.29-2.88,2.29c-1.32,0-2.04-.77-2.04-1.54,0-.3.12-.52.24-.7.24-.28.79-.66,1.06-.88-.49-.11-1.04-.53-1-1.03.37-.11.94-.43,1.12-.62-.54-.18-1.09-.76-1.09-1.45,0-1.63,1.81-2.41,3.01-1.65.61-.05,1.08-.11,1.61-.2l.07.1c-.14.16-.37.42-.54.49h-.71Zm-3.08,5.7c0,.76.7,1.37,1.7,1.37,1.35,0,1.98-.74,1.98-1.58,0-.38-.19-.72-.5-.89-.34-.19-.74-.2-1.4-.2-1.71,0-1.77,1.1-1.77,1.31Zm.38-4.77c0,1.12.55,1.72,1.29,1.72.54,0,1.08-.38,1.08-1.4,0-1.08-.43-1.69-1.25-1.69-.66.01-1.13.48-1.13,1.38Z"/>
  </g>
  <g>
    <line class="cls-1" x1="172.29" y1="25.97" x2="172.29" y2="35.08"/>
    <path class="cls-5" d="m172.29,34l2.16-1.31.05.07-1.4,3.53c-.27,1.23-.54,2.46-.81,3.68-.27-1.23-.54-2.46-.81-3.68l-1.4-3.53.04-.07,2.17,1.31Z"/>
  </g>
  <g>
    <path class="cls-3" d="m108.24,11.64c1.03-.05,1.13-.25,1.13-1.2v-4.77c0-.96,0-1.14-1.06-1.19v-.18h2.84c.76,0,2.61.1,2.61,2.09,0,1.75-1.67,2.47-2.79,2.35l-.96-.26v1.99c0,.94.08,1.1,1.31,1.18v.17h-3.08v-.17Zm1.77-3.43c.13.06.46.18,1.02.18,1.07,0,1.94-.55,1.94-1.94,0-1.31-.76-1.91-2.23-1.91-.32,0-.5,0-.61.02-.08.01-.12.05-.12.3v3.35Z"/>
    <path class="cls-3" d="m114.69,11.64c.73-.05.85-.22.85-.97v-2.35c0-.88-.08-.95-.83-1.03v-.14c.49-.1.97-.24,1.4-.5v1.46h.02c.29-.65.94-1.42,1.52-1.42.36,0,.59.31.59.5,0,.23-.24.44-.42.44-.05,0-.08-.01-.11-.06-.18-.17-.28-.25-.5-.25-.32,0-.79.54-1.1,1.42v1.96c0,.74.11.9,1.07.95v.17h-2.49v-.17Z"/>
    <path class="cls-3" d="m122.92,10.9c-.71.82-1.52,1.04-1.8,1.04-1.42,0-2.29-1.13-2.29-2.4,0-1.76,1.44-2.85,2.41-2.85,1.03,0,1.77.84,1.77,1.69,0,.24-.01.28-.2.31-.19.04-1.73.17-3.38.22-.01,1.82,1.08,2.47,1.91,2.47.41,0,.84-.08,1.45-.66l.13.18Zm-3.42-2.37c.28,0,1.97-.02,2.48-.04.3,0,.3-.12.3-.19,0-.67-.5-1.27-1.37-1.27-.6,0-1.24.53-1.42,1.5Z"/>
    <path class="cls-3" d="m123.98,10.18c.23.77.77,1.5,1.5,1.5.5,0,.96-.29.96-.95s-.41-.95-1-1.19c-.76-.29-1.43-.68-1.43-1.44s.67-1.43,1.71-1.42c.43,0,.72.1.94.19.08.28.19.88.23,1.21l-.17.07c-.2-.6-.65-1.21-1.26-1.21s-.89.41-.89.89c0,.59.59.88,1.07,1.07.84.32,1.43.76,1.43,1.54,0,.96-.88,1.5-1.8,1.5-.62,0-1.13-.22-1.3-.4-.08-.19-.14-.92-.18-1.31l.18-.06Z"/>
    <path class="cls-3" d="m128.01,10.18c.23.77.77,1.5,1.5,1.5.5,0,.96-.29.96-.95s-.41-.95-1-1.19c-.76-.29-1.43-.68-1.43-1.44s.67-1.43,1.72-1.42c.43,0,.72.1.94.19.08.28.19.88.23,1.21l-.17.07c-.2-.6-.65-1.21-1.26-1.21s-.89.41-.89.89c0,.59.59.88,1.07,1.07.84.32,1.43.76,1.43,1.54,0,.96-.88,1.5-1.8,1.5-.62,0-1.13-.22-1.3-.4-.08-.19-.14-.92-.18-1.31l.18-.06Z"/>
    <path class="cls-3" d="m133.14,9.88c0,1.2.58,1.51,1.25,1.51.48,0,1.06-.24,1.56-.74v-2.64c0-.71-.17-.76-.6-.84l-.46-.07v-.13c.52-.01,1.33-.13,1.63-.22v3.91c0,.6.13.66.6.7l.36.02v.17c-.49.06-1.01.24-1.48.41l-.06-.06v-.92c-.31.23-.61.49-1.03.71-.35.2-.6.26-.91.26-.72,0-1.44-.37-1.44-1.7v-2.22c0-.71-.18-.77-.43-.84l-.38-.08v-.12c.28-.02,1.16-.17,1.43-.23-.04.24-.04.66-.04,1.56v1.57Z"/>
    <path class="cls-3" d="m137.99,11.64c.73-.05.85-.22.85-.97v-2.35c0-.88-.08-.95-.83-1.03v-.14c.49-.1.97-.24,1.4-.5v1.46h.02c.29-.65.94-1.42,1.52-1.42.36,0,.59.31.59.5,0,.23-.24.44-.42.44-.05,0-.08-.01-.11-.06-.18-.17-.28-.25-.5-.25-.32,0-.79.54-1.1,1.42v1.96c0,.74.11.9,1.07.95v.17h-2.49v-.17Z"/>
    <path class="cls-3" d="m146.22,10.9c-.71.82-1.52,1.04-1.8,1.04-1.42,0-2.29-1.13-2.29-2.4,0-1.76,1.44-2.85,2.41-2.85,1.03,0,1.77.84,1.77,1.69,0,.24-.01.28-.2.31-.19.04-1.73.17-3.38.22-.01,1.82,1.08,2.47,1.91,2.47.41,0,.84-.08,1.45-.66l.13.18Zm-3.42-2.37c.28,0,1.97-.02,2.48-.04.3,0,.3-.12.3-.19,0-.67-.5-1.27-1.37-1.27-.6,0-1.24.53-1.42,1.5Z"/>
    <path class="cls-3" d="m153.09,11.94s-.26-.1-.38-.22c-.14-.16-.19-.3-.26-.56-.47.36-1.01.78-1.45.78-.83,0-1.39-.62-1.39-1.37,0-.54.37-.92,1.2-1.18.61-.18,1.37-.47,1.64-.64,0-.59-.01-1.63-1.09-1.63-.19.01-.84.06-1.04,1.02-.02.08-.1.2-.26.2s-.36-.17-.36-.41c0-.18.14-.32.34-.43.3-.2,1.1-.7,1.69-.83.59,0,1.33.38,1.33,1.44v2.58c0,.49.18.68.43.68.2,0,.4-.07.53-.16l.11.2-1.02.5Zm-.65-2.88c-.25.14-1.01.43-1.27.54-.54.2-.86.43-.86.88,0,.62.5.95.94.95.41,0,.95-.3,1.2-.61v-1.75Z"/>
    <path class="cls-3" d="m156.77,11.81c-.22.12-.35.13-.49.13-.67,0-1-.48-1-1.3v-3.44h-.86l-.04-.13.32-.25h.58v-.66l.41-.82h.17s0,1.48,0,1.48h1.44s.04.1.04.14c0,.08-.04.17-.12.24h-1.36v3.12c0,.97.32,1.18.72,1.18s.7-.17.83-.24l.1.18-.73.37Z"/>
    <path class="cls-3" d="m161.4,4.65h3.13l.06.06-.24.53h-2.66l-.35,2.25c.56-.19,1.02-.38,1.35-.38,1.46,0,2.16,1.09,2.15,2.05,0,1.75-1.82,2.78-3.01,2.77-.67,0-1.27-.32-1.27-.62,0-.19.26-.44.42-.44.04,0,.08.01.12.04.22.23.6.53,1.33.53,1.55,0,1.76-1.37,1.76-1.82,0-1.19-.58-1.94-1.98-1.94-.66,0-1.07.13-1.24.19l.42-3.2Z"/>
    <path class="cls-3" d="m166.24,12.84c.5-.2.82-.52.82-.94,0-.47-.34-.68-.66-.77-.06-.01-.16-.04-.16-.18,0-.28.25-.43.48-.43.32,0,.91.38.91,1.15s-.68,1.2-1.27,1.4l-.12-.24Z"/>
    <path class="cls-3" d="m173.39,8.22c0,1.68-.64,3.72-2.27,3.72s-2.31-2.04-2.31-3.72.66-3.71,2.31-3.71,2.27,2.11,2.27,3.71Zm-2.27-3.43c-1.28,0-1.62,1.77-1.62,3.44s.34,3.44,1.63,3.44,1.58-1.81,1.58-3.44-.35-3.44-1.58-3.44h-.01Z"/>
    <path class="cls-3" d="m178.93,8.22c0,1.68-.64,3.72-2.27,3.72s-2.31-2.04-2.31-3.72.66-3.71,2.31-3.71,2.27,2.11,2.27,3.71Zm-2.27-3.43c-1.28,0-1.62,1.77-1.62,3.44s.34,3.44,1.63,3.44,1.58-1.81,1.58-3.44-.35-3.44-1.58-3.44h-.01Z"/>
    <path class="cls-3" d="m184.48,8.22c0,1.68-.64,3.72-2.27,3.72s-2.31-2.04-2.31-3.72.66-3.71,2.31-3.71,2.27,2.11,2.27,3.71Zm-2.27-3.43c-1.28,0-1.62,1.77-1.62,3.44s.34,3.44,1.63,3.44,1.58-1.81,1.58-3.44-.35-3.44-1.58-3.44h-.01Z"/>
    <path class="cls-3" d="m187.81,11.64c.73-.05.84-.19.84-.95v-3.49h-.86l-.05-.13.32-.25h.59c0-.5.01-1.06.1-1.28.11-.25.31-.88.9-1.37.44-.37.88-.58,1.28-.64.42,0,.98.38.98.62s-.28.36-.36.36c-.05,0-.1-.02-.14-.08-.2-.2-.59-.35-1.04-.35-.28,0-.52.1-.71.3-.19.23-.41.96-.42,1.88v.55s1.45,0,1.45,0c.02.06.04.11.04.17,0,.08-.04.18-.13.22h-1.37v3.49c0,.74.1.9,1.1.97v.14h-2.52v-.17Z"/>
    <path class="cls-3" d="m195.18,10.9c-.71.82-1.52,1.04-1.8,1.04-1.42,0-2.29-1.13-2.29-2.4,0-1.76,1.44-2.85,2.41-2.85,1.03,0,1.78.84,1.78,1.69,0,.24-.01.28-.2.31-.19.04-1.73.17-3.38.22-.01,1.82,1.08,2.47,1.91,2.47.41,0,.84-.08,1.45-.66l.13.18Zm-3.42-2.37c.28,0,1.97-.02,2.48-.04.3,0,.3-.12.3-.19,0-.67-.5-1.27-1.37-1.27-.6,0-1.24.53-1.42,1.5Z"/>
    <path class="cls-3" d="m200.16,10.9c-.71.82-1.52,1.04-1.8,1.04-1.42,0-2.29-1.13-2.29-2.4,0-1.76,1.44-2.85,2.41-2.85,1.03,0,1.77.84,1.77,1.69,0,.24-.01.28-.2.31-.19.04-1.73.17-3.38.22-.01,1.82,1.08,2.47,1.91,2.47.41,0,.84-.08,1.45-.66l.13.18Zm-3.42-2.37c.28,0,1.97-.02,2.48-.04.3,0,.3-.12.3-.19,0-.67-.5-1.27-1.37-1.27-.6,0-1.24.53-1.42,1.5Z"/>
    <path class="cls-3" d="m203.22,11.81c-.22.12-.35.13-.49.13-.67,0-1-.48-1-1.3v-3.44h-.86l-.04-.13.32-.25h.58v-.66l.41-.82h.17s0,1.48,0,1.48h1.44s.04.1.04.14c0,.08-.04.17-.12.24h-1.36v3.12c0,.97.32,1.18.72,1.18s.7-.17.83-.24l.1.18-.73.37Z"/>
    <path class="cls-3" d="m208.37,7.42c0,.34-.23.55-.54.55s-.53-.22-.53-.55c0-.3.23-.54.53-.54.34,0,.54.28.54.54Zm-1.05,3.98c0-.3.23-.55.53-.55s.54.25.54.55c0,.32-.23.54-.54.54-.34-.01-.53-.24-.53-.54Z"/>
    <path class="cls-3" d="m216.68,10.5c-.13.37-.23.74-.37,1.31h-4.21v-.19c.66-.66,1.33-1.33,1.91-2.02.62-.72,1.61-1.65,1.61-2.85,0-1.09-.56-1.67-1.51-1.67s-1.4.72-1.67,1.12l-.18-.14.65-.9c.32-.34.86-.64,1.5-.64.95,0,1.86.67,1.86,1.83,0,1.06-.56,1.81-1.52,2.84l-1.86,2.03h2.47c.6,0,.78-.06,1.09-.79l.24.07Z"/>
    <path class="cls-3" d="m218.74,4.65h3.13l.06.06-.24.53h-2.66l-.35,2.25c.56-.19,1.02-.38,1.36-.38,1.46,0,2.16,1.09,2.15,2.05,0,1.75-1.82,2.78-3.01,2.77-.67,0-1.27-.32-1.27-.62,0-.19.26-.44.42-.44.04,0,.08.01.12.04.22.23.6.53,1.33.53,1.55,0,1.76-1.37,1.76-1.82,0-1.19-.58-1.94-1.98-1.94-.66,0-1.07.13-1.24.19l.42-3.2Z"/>
    <path class="cls-3" d="m225.65,11.64c.77-.06.89-.22.89-.91v-2.49c0-.77-.08-.83-.77-.95v-.16c.5-.11.89-.24,1.34-.48v4.08c0,.7.12.85.9.91v.17h-2.36v-.17Zm1.64-7.12c0,.25-.2.48-.46.48s-.46-.23-.46-.48c0-.29.22-.5.46-.5.28,0,.46.25.46.5Z"/>
    <path class="cls-3" d="m228.54,11.64c.7-.05.89-.23.89-.95v-2.41c0-.8-.08-.85-.76-.98v-.16c.48-.12.96-.23,1.33-.5v1c.24-.14.54-.36.91-.61.34-.2.64-.34.97-.34,1,0,1.56.61,1.56,1.56v2.39c0,.84.11.96.78,1.01v.17h-2.31v-.17c.82-.05.96-.22.96-1.01v-1.97c0-.68-.19-1.45-1.3-1.45-.59,0-1.2.36-1.57.73v2.7c0,.77.12.95.95,1v.17h-2.41v-.17Z"/>
    <path class="cls-3" d="m236.75,7.66h5.06v-1.99c0-.94-.1-1.12-1.13-1.2v-.17h2.9v.17c-1.06.08-1.15.26-1.15,1.2v4.77c0,.95.1,1.13,1.12,1.2v.17h-2.96v-.17c1.13-.07,1.22-.25,1.22-1.2v-2.41h-5.06v2.41c0,.95.11,1.13,1.16,1.2v.17h-2.89v-.17c1.01-.07,1.1-.25,1.1-1.2v-4.77c0-.94-.1-1.12-1.15-1.2v-.17h2.88v.17c-1,.08-1.1.26-1.1,1.2v1.99Z"/>
    <path class="cls-3" d="m248.09,7.37c.24.25.41.66.41,1.02,0,1.26-1.13,1.86-1.98,1.86-.12,0-.25-.01-.43-.04-.3.11-.7.36-.7.61,0,.23.28.44.74.44.5,0,.97-.05,1.43-.05.83,0,1.68.24,1.68,1.34s-1.31,2.29-2.88,2.29c-1.32,0-2.04-.77-2.04-1.54,0-.3.12-.52.24-.7.24-.28.79-.66,1.06-.88-.49-.11-1.04-.53-1-1.03.37-.11.94-.43,1.12-.62-.54-.18-1.09-.76-1.09-1.45,0-1.63,1.81-2.41,3.01-1.66.61-.05,1.08-.11,1.61-.2l.07.1c-.14.16-.37.42-.54.49h-.71Zm-3.08,5.7c0,.76.7,1.37,1.7,1.37,1.35,0,1.98-.74,1.98-1.58,0-.38-.19-.72-.5-.89-.34-.19-.74-.2-1.4-.2-1.71,0-1.77,1.1-1.77,1.31Zm.38-4.77c0,1.12.55,1.72,1.29,1.72.54,0,1.08-.38,1.08-1.4,0-1.08-.43-1.69-1.25-1.69-.66.01-1.13.48-1.13,1.38Z"/>
  </g>
  <g>
    <path class="cls-3" d="m116.41,16.55h2.35l.04.04-.18.4h-2l-.26,1.69c.42-.14.77-.29,1.02-.29,1.1,0,1.62.82,1.61,1.54,0,1.31-1.37,2.09-2.26,2.08-.5,0-.95-.24-.95-.47,0-.14.2-.33.31-.33.03,0,.06,0,.09.03.16.17.45.4,1,.4,1.16,0,1.32-1.03,1.32-1.37,0-.89-.43-1.46-1.49-1.46-.5,0-.8.1-.93.14l.31-2.4Z"/>
    <path class="cls-3" d="m123.26,19.23c0,1.26-.48,2.79-1.7,2.79s-1.74-1.53-1.74-2.79.5-2.78,1.74-2.78,1.7,1.58,1.7,2.78Zm-1.7-2.57c-.96,0-1.22,1.33-1.22,2.58s.25,2.58,1.22,2.58,1.19-1.36,1.19-2.58-.26-2.58-1.19-2.58h0Z"/>
    <path class="cls-3" d="m127.42,19.23c0,1.26-.48,2.79-1.7,2.79s-1.74-1.53-1.74-2.79.5-2.78,1.74-2.78,1.7,1.58,1.7,2.78Zm-1.7-2.57c-.96,0-1.22,1.33-1.22,2.58s.25,2.58,1.22,2.58,1.19-1.36,1.19-2.58-.26-2.58-1.19-2.58h0Z"/>
    <path class="cls-3" d="m131.57,19.23c0,1.26-.48,2.79-1.7,2.79s-1.74-1.53-1.74-2.79.5-2.78,1.74-2.78,1.7,1.58,1.7,2.78Zm-1.7-2.57c-.96,0-1.22,1.33-1.22,2.58s.25,2.58,1.22,2.58,1.19-1.36,1.19-2.58-.26-2.58-1.19-2.58h0Z"/>
    <path class="cls-3" d="m140.58,19.5c.06.05.09.1.09.14,0,.04-.04.06-.13.06h-3.67c.84,1.71,2.25,2.21,3.67,2.25v.14c-.5.03-.71.16-.82.35-.02.04-.05.05-.08.05s-.05,0-.08-.02c-1.49-.62-2.32-1.33-2.86-2.77h-.31c-.42,1.6-2.34,2.56-3.99,3.02l-.05-.14c1.65-.67,3.21-1.56,3.64-2.89h-2.85c-.19,0-.45.04-.6.1l-.25-.33c.23.02.45.04.66.04h1.06v-1.66c0-.23-.02-.68-.03-.88l.53.38h1.75c.02-.5.02-.87,0-1.22l.69.35s.06.05.06.07-.02.05-.06.08l-.24.15-.03.56h1.68l.27-.43.59.36s.06.04.06.07-.02.05-.06.09l-.23.19v1.88h.65l.37-.52.57.52Zm-.12-4.1c.06.05.09.1.09.14s-.04.06-.13.06h-2.41c0,.13.02.74.02.88,0,.08-.04.13-.22.21-.06.03-.11.04-.14.04-.06,0-.09-.06-.09-.19,0-.14,0-.79,0-.95h-2.21c0,.13.02.74.02.88s-.33.26-.36.26c-.07,0-.09-.06-.09-.19,0-.13,0-.8,0-.95h-1.61c-.19,0-.45.04-.6.1l-.25-.33c.23.02.45.04.66.04h1.81v-.36c0-.23,0-.48-.03-.77l.64.27c.07.03.11.05.11.08,0,.04-.03.06-.3.23v.56h2.21v-.4c0-.23,0-.48-.03-.77l.64.27c.07.03.11.06.11.09,0,.05-.03.07-.3.23v.58h1.48l.38-.52.59.52Zm-4.42,4.1c.11-.42.15-.84.2-1.96h-1.82v1.96h1.62Zm2.53,0v-1.96h-1.9c-.05.89-.12,1.44-.23,1.96h2.13Z"/>
    <path class="cls-3" d="m149.71,21.94c-.52,0-.83.21-.95.41-.02.03-.04.04-.06.04-.02,0-.04,0-.07-.02-2.28-1.18-3.49-2.8-3.86-4.75h-1.37c0,2.81-.66,3.96-2.1,5.04l-.08-.09c1.12-1.13,1.7-2.21,1.7-4.72v-2.02c0-.38,0-.95-.03-1.15l.62.48h3.92l.31-.43.61.43s.07.06.07.09-.02.05-.06.08l-.33.23v1.41c0,.14.05.85.05.92,0,.12-.05.16-.23.23-.09.04-.14.05-.18.05-.05,0-.06-.04-.06-.12v-.44h-2.64c.73,2.83,3.29,4.26,4.74,4.2v.13Zm-2.11-4.52v-2.06h-4.2v2.06h4.2Z"/>
    <path class="cls-3" d="m158.43,21.82c.06.06.1.11.1.14s-.04.04-.13.04h-7.24c-.19,0-.45.04-.6.1l-.25-.37c.22.02.45.04.66.04h3.18v-6.21c0-.52,0-.88-.03-1.19l.67.33c.06.04.1.05.1.09,0,.03-.04.06-.09.11l-.23.19v2.3h2.38l.39-.5.55.54c.06.06.1.11.1.13,0,.04-.05.04-.13.04h-3.29v4.15h2.92l.36-.53.59.58Z"/>
    <path class="cls-3" d="m163.16,16.1s.07.05.07.07c0,.03-.03.05-.07.07l-.31.19v3.48c0,.68.02,1.24.04,1.65v.05c0,.14-.04.17-.23.25-.09.04-.14.05-.17.05-.05,0-.06-.04-.06-.12v-.66h-1.94v.86c0,.12-.02.14-.18.22-.08.04-.13.05-.18.05-.07,0-.09-.06-.09-.22v-.06c.02-.5.03-1.27.03-1.76v-3.74c0-.46,0-.61-.03-.88l.55.45h.42c.24-.58.46-1.26.6-1.79l.57.3c.07.04.11.06.11.09s-.04.05-.1.05c-.13.02-.22.08-.3.21l-.71,1.14h1.11l.3-.41.57.44Zm-.73,2.3v-2.14h-1.94v2.14h1.94Zm0,2.55v-2.35h-1.94v2.35h1.94Zm4.74-4.79c.05.04.07.06.07.09s-.02.05-.07.08l-.29.17c-.06,2.33-.13,3.9-.19,4.67-.06.84-.14,1.11-.84,1.49-.02,0-.04.02-.05.02-.04,0-.05-.04-.08-.11-.1-.31-.31-.44-1.12-.66v-.14c.51.12.85.19,1.09.19.44,0,.51-.23.56-.77.08-.87.17-2.71.22-4.88h-2.11c-.39.85-.71,1.43-1.14,2.05l-.1-.06c.59-1.08,1.2-2.75,1.54-4l.53.27c.09.05.14.08.14.12s-.04.06-.14.08-.17.09-.28.33c-.16.38-.31.71-.45,1.01h1.89l.26-.42.57.46Zm-3.14,1.6c.73.4,1.1.76,1.19,1.01.03.08.05.16.05.24,0,.24-.14.43-.26.43-.14,0-.18-.05-.22-.23-.1-.43-.37-.92-.82-1.38l.06-.08Z"/>
    <path class="cls-3" d="m176.04,15.56c.06.05.09.1.09.13,0,.04-.04.06-.13.06h-5.54c-.69,1.14-1.48,2.2-2.12,2.79l-.1-.07c1.09-1.33,1.87-2.75,2.42-4.14l.58.38s.07.05.07.07c0,.03-.04.05-.12.08-.21.07-.29.13-.41.33-.07.12-.14.24-.22.36h4.58l.38-.47.5.47Zm.29,4.99c0,1.01.04,1.43.2,1.67.14.21.19.29.19.34,0,.03,0,.04-.02.06-.03.04-.14.07-.28.07-.21,0-.5-.05-.79-.18-1.06-.48-1.72-1.13-1.72-3.61,0-.19,0-.39,0-.59h-3.75c-.19,0-.45.04-.6.1l-.25-.33c.23.02.45.04.66.04h3.82l.33-.4.58.44s.06.04.06.07c0,.02-.03.04-.09.07l-.3.16c-.02.31-.03.58-.03.83,0,1.1.2,2.49,1.6,2.78.06-.23.14-.68.23-1.53h.15Zm-.95-3.67c.05.05.08.09.08.13s-.04.05-.11.05h-4.32c-.19,0-.45.04-.6.1l-.25-.33c.22.03.45.04.66.04h3.64l.36-.45.55.47Z"/>
    <path class="cls-3" d="m185.44,15.29s.07.09.07.12c0,.04-.04.07-.1.07h-6.28c-.14,4.49-.18,5.46-1.87,7.03l-.09-.09c1.25-1.58,1.45-2.37,1.45-6.11,0-.45,0-.96-.02-1.6l.72.58h5.12l.4-.55.6.56Zm.11,6.43c.05.05.08.09.08.12s-.04.04-.13.04h-5.93c-.19,0-.46.04-.6.09l-.25-.32c.22.02.45.04.66.04h2.42v-3.3h-1.63c-.18,0-.44.04-.58.09l-.24-.32c.21.02.43.04.63.04h1.82v-1.26c0-.35-.02-.93-.04-1.24l.66.32c.08.04.12.06.12.09s-.03.05-.08.09l-.23.16v1.84h1.8l.4-.5.53.5c.06.05.09.1.09.13s-.04.06-.13.06h-2.68v3.3h2.35l.38-.52.6.56Zm-2.55-2.58c.83.32,1.3.68,1.4.95.04.08.05.17.05.26,0,.23-.12.42-.27.42-.05,0-.09-.04-.17-.23-.24-.58-.44-.83-1.06-1.31l.04-.1Z"/>
    <path class="cls-3" d="m188.19,18.71c-.28,0-.51-.23-.51-.5s.23-.51.51-.51.51.23.51.51-.23.5-.51.5Zm0,3.35c-.28,0-.51-.23-.51-.5s.23-.51.51-.51.51.23.51.51-.23.5-.51.5Z"/>
    <path class="cls-3" d="m198.66,20.94c-.1.28-.17.56-.28.98h-3.16v-.14c.5-.5,1-1,1.43-1.51.47-.54,1.21-1.24,1.21-2.14,0-.82-.42-1.25-1.13-1.25s-1.05.54-1.25.84l-.14-.11.49-.68c.24-.25.65-.48,1.13-.48.71,0,1.4.5,1.4,1.38,0,.79-.42,1.36-1.14,2.13l-1.4,1.52h1.85c.45,0,.59-.05.82-.59l.18.05Z"/>
    <path class="cls-3" d="m200.2,16.55h2.35l.04.04-.18.4h-2l-.26,1.69c.42-.14.77-.29,1.02-.29,1.1,0,1.62.82,1.61,1.54,0,1.31-1.37,2.09-2.26,2.08-.5,0-.95-.24-.95-.47,0-.14.2-.33.31-.33.03,0,.06,0,.09.03.16.17.45.4,1,.4,1.16,0,1.32-1.03,1.32-1.37,0-.89-.43-1.46-1.49-1.46-.5,0-.8.1-.93.14l.31-2.4Z"/>
    <path class="cls-3" d="m211.89,19.5c.06.05.09.1.09.14,0,.04-.04.06-.13.06h-3.67c.84,1.71,2.25,2.21,3.67,2.25v.14c-.5.03-.71.16-.82.35-.02.04-.05.05-.08.05s-.05,0-.08-.02c-1.49-.62-2.32-1.33-2.86-2.77h-.31c-.42,1.6-2.34,2.56-3.99,3.02l-.05-.14c1.65-.67,3.21-1.56,3.64-2.89h-2.85c-.19,0-.45.04-.6.1l-.25-.33c.23.02.45.04.66.04h1.06v-1.66c0-.23-.02-.68-.03-.88l.53.38h1.75c.02-.5.02-.87,0-1.22l.69.35s.06.05.06.07-.02.05-.06.08l-.24.15-.03.56h1.68l.27-.43.59.36s.06.04.06.07-.02.05-.06.09l-.23.19v1.88h.65l.37-.52.57.52Zm-.12-4.1c.06.05.09.1.09.14s-.04.06-.13.06h-2.41c0,.13.02.74.02.88,0,.08-.04.13-.22.21-.06.03-.11.04-.14.04-.06,0-.09-.06-.09-.19,0-.14,0-.79,0-.95h-2.21c0,.13.02.74.02.88s-.33.26-.36.26c-.07,0-.09-.06-.09-.19,0-.13,0-.8,0-.95h-1.61c-.19,0-.45.04-.6.1l-.25-.33c.23.02.45.04.66.04h1.81v-.36c0-.23,0-.48-.03-.77l.64.27c.07.03.11.05.11.08,0,.04-.03.06-.3.23v.56h2.21v-.4c0-.23,0-.48-.03-.77l.64.27c.07.03.11.06.11.09,0,.05-.03.07-.3.23v.58h1.48l.38-.52.59.52Zm-4.42,4.1c.11-.42.15-.84.2-1.96h-1.82v1.96h1.62Zm2.53,0v-1.96h-1.9c-.05.89-.12,1.44-.23,1.96h2.13Z"/>
    <path class="cls-3" d="m220.71,16.69c.08.07.12.13.12.15,0,.04-.04.04-.15.04h-2.39v4.96c0,.4-.07.53-.75.81-.03,0-.04.02-.05.02-.04,0-.04-.03-.05-.07-.04-.35-.15-.49-1.27-.78l.03-.13c.72.1,1.13.15,1.37.15.28,0,.3-.07.3-.21v-4.74h-4.28c-.21,0-.49.04-.66.1l-.27-.35c.24.02.49.04.71.04h4.49v-1c0-.39-.02-1.03-.04-1.37l.64.32c.06.04.1.05.1.08s0,.04-.27.21v1.76h1.45l.41-.53.56.55Zm-6.08.84c.99.69,1.28,1.04,1.42,1.41.02.05.03.11.03.16,0,.27-.2.56-.38.56-.15,0-.17-.04-.23-.38-.05-.36-.27-.97-.92-1.67l.07-.08Z"/>
    <path class="cls-3" d="m225,18.64s.04.04.04.05c0,.05-.03.06-.28.18-.83,1.63-1.67,2.52-3.05,3.38l-.06-.13c1.3-.92,2.29-2.3,2.63-3.38h-1.53c-.19,0-.45.04-.6.1l-.25-.33c.23.02.45.04.66.04h1.67l.26-.33.52.42Zm4.49-1.77c.07.07.11.12.11.14s-.05.04-.15.04h-6.77c-.19,0-.46.04-.6.09l-.25-.32c.22.02.45.04.66.04h3.11v-1.78h-2.05c-.19,0-.46.04-.6.09l-.25-.32c.22.02.45.04.66.04h4.39l.38-.46.52.49c.06.06.1.1.1.13,0,.04-.05.04-.15.04h-2.56v1.78h2.55l.39-.49.53.5Zm.42,4.72c-.62-.04-.81.07-.95.3-.02.04-.04.05-.06.05-.03,0-.04-.02-.07-.04-1.57-1.14-2.31-2.12-2.84-4.09l-.06.05v3.86c0,.42-.13.67-.6.86-.02,0-.03,0-.04,0-.03,0-.04-.02-.05-.06-.08-.34-.14-.4-1.09-.61v-.14c.58.12.91.17,1.11.17.23,0,.26-.08.26-.21v-3.17c0-.37-.02-.98-.04-1.31l.6.29c.07.04.11.07.11.11,0,.03-.03.05-.08.1.21.64.53,1.31.88,1.82.38-.39.97-1.09,1.33-1.58l.57.45s.05.05.05.07-.03.03-.1.03c-.28,0-.37.04-.48.13l-1.3,1.02c.71.96,1.65,1.58,2.85,1.77v.14Z"/>
    <path class="cls-3" d="m234,16.41c.08.07.12.12.12.14s-.04.04-.14.04h-1.4v.98c.86.37,1.17.59,1.17.91,0,.23-.11.39-.21.39-.09,0-.15-.05-.21-.23-.07-.23-.3-.56-.76-.9v2.79c0,.68,0,1.36.02,1.76v.07c0,.12-.03.15-.22.23-.07.03-.13.04-.16.04-.06,0-.08-.04-.08-.15,0-.04,0-.07,0-.13.03-.52.04-1.34.04-1.85v-3.07c-.41,1.11-1.04,2.35-1.58,3.15l-.08-.07c.55-.9,1.29-2.59,1.6-3.93h-.65c-.19,0-.45.04-.6.1l-.25-.33c.22.02.45.04.66.04h.91v-.83c0-.37-.02-.98-.04-1.31l.6.31c.06.03.09.05.09.08,0,.04-.03.06-.27.27v1.49h.58l.35-.45.5.47Zm4.8,5.4c.07.08.12.13.12.15,0,.04-.05.04-.15.04h-4.71c-.19,0-.45.04-.6.1l-.25-.33c.22.02.45.04.66.04h2.2v-2.76h-.94c-.19,0-.45.04-.6.1l-.25-.33c.23.02.45.04.66.04h1.13v-2.4h-.86c-.19,0-.45.04-.6.1l-.25-.33c.23.02.45.04.66.04h2.83l.41-.51.49.51c.07.07.11.13.11.15,0,.04-.04.04-.14.04h-2.21v2.4h1.14l.38-.48.5.48c.08.08.13.13.13.16,0,.03-.05.04-.16.04h-1.98v2.76h1.4l.4-.53.52.53Zm-3.37-7.44c.78.42,1.12.75,1.19,1.02,0,.04,0,.07,0,.11,0,.23-.15.45-.28.45-.12,0-.16-.08-.22-.34-.05-.27-.24-.66-.77-1.14l.06-.09Z"/>
  </g>
</svg>