<svg id="图层_1" data-name="图层 1" xmlns="http://www.w3.org/2000/svg" xmlns:xlink="http://www.w3.org/1999/xlink" viewBox="0 0 223.4 183.56"><defs><style>.cls-1{fill:#008b0b;}.cls-1,.cls-10,.cls-11,.cls-12,.cls-13,.cls-2,.cls-3,.cls-4,.cls-5,.cls-6,.cls-7,.cls-8,.cls-9{stroke:#000;stroke-miterlimit:10;}.cls-2{fill:#fff;}.cls-3{fill:url(#未命名的渐变_16);}.cls-4{fill:url(#未命名的渐变_16-2);}.cls-5{fill:url(#未命名的渐变_16-3);}.cls-6{fill:url(#未命名的渐变_16-4);}.cls-7{fill:url(#未命名的渐变_16-5);}.cls-8{fill:url(#未命名的渐变_16-6);}.cls-9{fill:url(#未命名的渐变_16-7);}.cls-10{fill:url(#未命名的渐变_16-8);}.cls-11{fill:url(#未命名的渐变_16-9);}.cls-12{fill:#f29a25;stroke-width:0.5px;}.cls-13{fill:none;}.cls-14{font-size:8px;}.cls-14,.cls-15{font-family:SimHei;}.cls-15{font-size:9px;}</style><linearGradient id="未命名的渐变_16" x1="6.4" y1="119.79" x2="11.4" y2="119.79" gradientUnits="userSpaceOnUse"><stop offset="0.25" stop-color="#f6f5f5"/><stop offset="0.46" stop-color="#f7f6f6"/><stop offset="0.5" stop-color="#fff"/><stop offset="0.66" stop-color="#f6f5f5"/><stop offset="1"/></linearGradient><linearGradient id="未命名的渐变_16-2" x1="16.24" y1="123.12" x2="21.24" y2="123.12" xlink:href="#未命名的渐变_16"/><linearGradient id="未命名的渐变_16-3" x1="23.4" y1="114.79" x2="28.4" y2="114.79" xlink:href="#未命名的渐变_16"/><linearGradient id="未命名的渐变_16-4" x1="9.4" y1="133.79" x2="14.4" y2="133.79" xlink:href="#未命名的渐变_16"/><linearGradient id="未命名的渐变_16-5" x1="21.4" y1="130.79" x2="26.4" y2="130.79" xlink:href="#未命名的渐变_16"/><linearGradient id="未命名的渐变_16-6" x1="31.4" y1="138.79" x2="36.4" y2="138.79" xlink:href="#未命名的渐变_16"/><linearGradient id="未命名的渐变_16-7" x1="16.4" y1="143.79" x2="21.4" y2="143.79" xlink:href="#未命名的渐变_16"/><linearGradient id="未命名的渐变_16-8" x1="9.4" y1="150.79" x2="14.4" y2="150.79" xlink:href="#未命名的渐变_16"/><linearGradient id="未命名的渐变_16-9" x1="12.4" y1="179.79" x2="17.4" y2="179.79" xlink:href="#未命名的渐变_16"/></defs><polygon class="cls-1" points="117.75 151.29 104.1 170.29 131.4 170.29 117.75 151.29"/><polygon class="cls-1" points="209.88 130.07 210.75 134.99 25.29 167.69 24.42 162.77 25.68 162.55 24.9 158.11 7.24 161.22 6.4 156.44 41.71 150.21 42.55 155 28.83 157.42 29.61 161.85 114.5 146.88 94.97 22.38 119.2 146.05 205.03 130.92 204.28 126.66 187.51 129.62 186.67 124.84 221.98 118.61 222.82 123.39 208.21 125.97 208.96 130.23 209.88 130.07"/><path class="cls-2" d="M247.3,235.72l-34,6-6.6-37.41a6.74,6.74,0,0,1,5.46-7.8l4.33-.76-.92-5.2,11.63-2,.92,5.2,4.75-.84a6.77,6.77,0,0,1,7.84,5.49Z" transform="translate(-206.1 -85.21)"/><path class="cls-2" d="M427.73,204.35l-34,6-6.45-36.56a7.6,7.6,0,0,1,6.17-8.81l4.09-.72-.84-4.74,11.64-2.05.83,4.74,3.28-.58a7.62,7.62,0,0,1,8.83,6.19Z" transform="translate(-206.1 -85.21)"/><circle class="cls-3" cx="8.9" cy="119.79" r="2.5"/><circle class="cls-4" cx="18.74" cy="123.12" r="2.5"/><circle class="cls-5" cx="25.9" cy="114.79" r="2.5"/><circle class="cls-6" cx="11.9" cy="133.79" r="2.5"/><circle class="cls-7" cx="23.9" cy="130.79" r="2.5"/><circle class="cls-8" cx="33.9" cy="138.79" r="2.5"/><circle class="cls-9" cx="18.9" cy="143.79" r="2.5"/><circle class="cls-10" cx="11.9" cy="150.79" r="2.5"/><circle class="cls-11" cx="14.9" cy="179.79" r="2.5"/><rect class="cls-12" x="213.11" y="185.45" width="16" height="7" transform="translate(-235.55 -43.94) rotate(-10)"/><rect class="cls-12" x="393.84" y="153.83" width="16" height="7" transform="translate(-227.31 -13.04) rotate(-10)"/><line class="cls-2" x1="117.75" y1="9.79" x2="117.75" y2="19.29"/><line class="cls-2" x1="93.74" y1="14.82" x2="94.89" y2="21.31"/><line class="cls-2" x1="140.74" y1="14.82" x2="139.6" y2="21.31"/><path class="cls-13" d="M375.36,114.89a134.11,134.11,0,0,0-81.2-7.19,125.44,125.44,0,0,0-23.66,7.89" transform="translate(-206.1 -85.21)"/><text class="cls-14" transform="translate(20.06 182.31)">Air Molecule 空气分子</text><text class="cls-15" transform="matrix(0.98, -0.17, 0.17, 0.98, 187.36, 100.38)">Vacuum<tspan x="0" y="10.8" xml:space="preserve"> 真空</tspan></text><line class="cls-2" x1="71.19" y1="20.07" x2="73.97" y2="26.04"/><line class="cls-2" x1="161.85" y1="20.06" x2="159.06" y2="26.04"/><text class="cls-15" transform="translate(115.69 7.73)">0</text></svg>